# xmcd
#
# Track frame offsets: 
#        150
#        28006
#        52775
#        79584
#        97404
#        126008
#        145438
#        162630
#        188939
#        207511
#        224991
#        259697
#
# Disc length: 3718 seconds
#
# Revision: 0
# Processed by: cddbd v1.5.2PL0 Copyright (c) Steve Scherf et al.
# Submitted via: ExactAudioCopy v1.0b3
#
DISCID=bd0e840c
DTITLE=Various Artist - Tinh Khuc Linh 2
DYEAR=1900
DGENRE=
TTITLE0=Huong Lan - Vuon tao ngo
TTITLE1=Tuan Vu - Tren bon vung chien thuat
TTITLE2=Thanh Tuyen - Anh khong chet dau em
TTITLE3=Nhat Cuong - Rung la thap
TTITLE4=Phuong Dung - Anh di chien dich
TTITLE5=Khanh Ly - O rung U Minh ta khong thay em
TTITLE6=Thanh Mai - Buc tam thu
TTITLE7=Bang Chau - Dem tien don
TTITLE8=Le Thu - Nguoi tinh khong chan dung
TTITLE9=Cong Thanh - Tinh anh linh chien
TTITLE10=Ngoc Mai - Nguoi chet tro ve
TTITLE11=Nhu Mai - Muoi ba tuoi linh
EXTD=
EXTT0=
EXTT1=
EXTT2=
EXTT3=
EXTT4=
EXTT5=
EXTT6=
EXTT7=
EXTT8=
EXTT9=
EXTT10=
EXTT11=
PLAYORDER=
